# xmcd
#
# Track frame offsets:
#	150
#	11732
#	27673
#	45722
#	60331
#	73324
#	87107
#	102189
#	119736
#	140375
#	151218
#	166933
#	180752
#	194918
#
# Disc length: 2775 seconds
#
# Revision: 0
# Processed by: cddbd v1.5.2PL0 Copyright (c) Steve Scherf et al.
# Submitted via: EZCDAudioConverter 1.1.0.1
#
DISCID=bf0ad50e
DTITLE=MITROPANOS ADAMANTIDIS MPAZIZ - YPARXEI KAI TO ZEMPEKIKO LIVE CD 2
DYEAR=2005
DGENRE=
TTITLE0=MIA ZOI PLIRONO AMARIOES ALLONON
TTITLE1=MA POU NA PAO
TTITLE2=APOPSE THELO NA PIO
TTITLE3=SE ANAZITO STIN SALONIKI
TTITLE4=MEXRI NA BROUME OURANO
TTITLE5=DEN YPARXOUN AGGELOI
TTITLE6=DEN THA KSANA AGAPISO
TTITLE7=AISTHIMATIES - BREXEI FOTIA STIN STRATA MOU
TTITLE8=MIA STASI EDO-PALIATZIS
TTITLE9=FEYGONTAS-PARASTRATHMA
TTITLE10=TESERIS
TTITLE11=KLAIEI APOPSE H GEITONIA-PES MOY POY POYLAN KARDIES
TTITLE12=STO ADEIO MOY PAKETO
TTITLE13=TO DIKO SOY AMARTIMA
EXTD=
EXTT0=
EXTT1=
EXTT2=
EXTT3=
EXTT4=
EXTT5=
EXTT6=
EXTT7=
EXTT8=
EXTT9=
EXTT10=
EXTT11=
EXTT12=
EXTT13=
PLAYORDER=
